<svg xmlns="http://www.w3.org/2000/svg" viewBox="0 0 48 48" width="48" height="48">
  <defs>
    <linearGradient id="ed" x1="0%" y1="0%" x2="100%" y2="100%">
      <stop offset="0%" stop-color="#8b5cf6" stop-opacity="0.7"/>
      <stop offset="100%" stop-color="#06b6d4" stop-opacity="0.3"/>
    </linearGradient>
    <linearGradient id="ed2" x1="100%" y1="0%" x2="0%" y2="100%">
      <stop offset="0%" stop-color="#06b6d4" stop-opacity="0.55"/>
      <stop offset="100%" stop-color="#8b5cf6" stop-opacity="0.2"/>
    </linearGradient>
    <filter id="gC" x="-50%" y="-50%" width="200%" height="200%">
      <feGaussianBlur stdDeviation="2.2" result="b"/>
      <feMerge><feMergeNode in="b"/><feMergeNode in="SourceGraphic"/></feMerge>
    </filter>
    <filter id="gN" x="-60%" y="-60%" width="220%" height="220%">
      <feGaussianBlur stdDeviation="1.4" result="b"/>
      <feMerge><feMergeNode in="b"/><feMergeNode in="SourceGraphic"/></feMerge>
    </filter>
  </defs>
  <circle cx="24" cy="24" r="18" fill="#8b5cf6" opacity="0.06"/>
  <line x1="14" y1="6" x2="34" y2="6" stroke="url(#ed)" stroke-width="1.1" stroke-linecap="round"/>
  <line x1="14" y1="6" x2="6" y2="20" stroke="url(#ed)" stroke-width="1.1" stroke-linecap="round"/>
  <line x1="34" y1="6" x2="42" y2="20" stroke="url(#ed)" stroke-width="1.1" stroke-linecap="round"/>
  <line x1="6" y1="20" x2="6" y2="34" stroke="url(#ed)" stroke-width="1.1" stroke-linecap="round"/>
  <line x1="42" y1="20" x2="42" y2="34" stroke="url(#ed)" stroke-width="1.1" stroke-linecap="round"/>
  <line x1="6" y1="34" x2="18" y2="44" stroke="url(#ed)" stroke-width="1.1" stroke-linecap="round"/>
  <line x1="42" y1="34" x2="30" y2="44" stroke="url(#ed)" stroke-width="1.1" stroke-linecap="round"/>
  <line x1="18" y1="44" x2="30" y2="44" stroke="url(#ed)" stroke-width="1.1" stroke-linecap="round"/>
  <line x1="14" y1="6" x2="24" y2="24" stroke="url(#ed2)" stroke-width="1.3" stroke-linecap="round"/>
  <line x1="34" y1="6" x2="24" y2="24" stroke="url(#ed2)" stroke-width="1.3" stroke-linecap="round"/>
  <line x1="6" y1="20" x2="24" y2="24" stroke="url(#ed2)" stroke-width="1.3" stroke-linecap="round"/>
  <line x1="42" y1="20" x2="24" y2="24" stroke="url(#ed2)" stroke-width="1.3" stroke-linecap="round"/>
  <line x1="6" y1="34" x2="24" y2="24" stroke="url(#ed2)" stroke-width="1.3" stroke-linecap="round"/>
  <line x1="42" y1="34" x2="24" y2="24" stroke="url(#ed2)" stroke-width="1.3" stroke-linecap="round"/>
  <line x1="18" y1="44" x2="24" y2="24" stroke="url(#ed2)" stroke-width="1.3" stroke-linecap="round"/>
  <line x1="30" y1="44" x2="24" y2="24" stroke="url(#ed2)" stroke-width="1.3" stroke-linecap="round"/>
  <circle cx="14" cy="6" r="2.8" fill="#8b5cf6" filter="url(#gN)"/>
  <circle cx="34" cy="6" r="2.8" fill="#06b6d4" filter="url(#gN)"/>
  <circle cx="6" cy="20" r="2.4" fill="#a78bfa" filter="url(#gN)"/>
  <circle cx="42" cy="20" r="2.4" fill="#c4b5fd" filter="url(#gN)"/>
  <circle cx="6" cy="34" r="2.4" fill="#06b6d4" filter="url(#gN)"/>
  <circle cx="42" cy="34" r="2.4" fill="#8b5cf6" filter="url(#gN)"/>
  <circle cx="18" cy="44" r="2.8" fill="#a78bfa" filter="url(#gN)"/>
  <circle cx="30" cy="44" r="2.8" fill="#06b6d4" filter="url(#gN)"/>
  <circle cx="24" cy="24" r="5.5" fill="#8b5cf6" filter="url(#gC)"/>
  <circle cx="24" cy="24" r="8" fill="none" stroke="#06b6d4" stroke-width="0.5" opacity="0.25"/>
</svg>
